<svg xmlns="http://www.w3.org/2000/svg" version="1" width="368.7" height="260.65" viewBox="0 0 276.52 195.49"><path d="M124.64.89c-10.5 1.2-26.3 4.2-35 6.8-6.2 1.8-17.6 7.6-21.1 10.6a73.2 73.2 0 0 1-7.9 5.7c-6.6 4.1-14.8 12.2-19.1 18.8-3.5 5.4-3.8 5.6-5.4 4-1.4-1.3-3.4-1.6-9.7-1.5-9.5.1-11.2.6-16 4.4-7.5 5.9-11.5 16.9-10.2 28.8 1.1 11.1 3.4 14.9 13.2 22.2 3.9 2.9 5.2 4.4 4.7 5.6-.3.9-1 7.5-1.5 14.7-.5 7.1-1.2 14.1-1.5 15.5-1.5 6.7-2.5 19.9-2.5 33.2 0 14 .1 14.8 1.9 14.8 1.1 0 2.2-.3 2.4-.8.3-.4.8-9.5 1.1-20.2.4-10.7.9-20.2 1.1-21 .3-.8.7-5.3.9-10 1.8-29.5 4.5-42.6 13.1-62.4 5.6-12.7 7.7-16.6 9.1-16.6 1.9 0 2.9-2.1 1.4-3-2.6-1.6 5.3-10.9 18-21.2 7.9-6.4 25.5-14.5 35.6-16.2 1.6-.3 6.7-1.5 11.4-2.7 4.7-1.1 11.2-2.3 14.5-2.5 3.3-.2 8-.7 10.5-1 26.6-3.7 56.8 7.1 78.9 28.2 8.8 8.4 10.3 10.4 18.6 25 10.1 17.8 11.3 20.2 16.1 32.7 8.5 22.2 12 43.5 10.9 68-.5 13.7-.4 15.8.9 16.3.9.3 1.6 1.2 1.6 2s.6 1.4 1.4 1.4c1 0 1.5-3.4 2.1-15.7.3-8.7.4-18.3.1-21.3-.3-3-.8-9.4-1.1-14.1-.2-4.8-1.3-11.4-2.4-14.7l-1.9-6.1 3.3-2c3.9-2.3 11.2-11.1 13.3-16.1 2-4.8 1.1-15.4-1.7-21.3-2.5-5.2-13-14.8-16.9-15.5-1.5-.2-7.4-.6-13.1-.7-9.9-.2-10.6-.4-12-2.6-3.5-5.7-11.5-15.8-12.2-15.4a146.1 146.1 0 0 0-28.3-22.2c-11.5-6.5-22.3-10.9-29.2-11.8-9.4-1.3-26-1.3-37.4-.1zm-93.2 51.5c2.3.6 4.2 1.3 4.2 1.4 0 .1-1.6 3.3-3.5 7.2-1.9 3.8-3.5 7.6-3.5 8.2 0 .7-1 1.3-2.3 1.3-1.2 0-3.3.7-4.6 1.6-1.9 1.4-2.2 2.3-1.8 5.2.4 1.9 1.3 4.2 2.2 5.2 1.4 1.5 1.4 2.2.1 6.1-.8 2.4-1.8 6.1-2.2 8.2l-.7 3.8-3.3-3.3c-3.8-3.7-6.9-9.7-9-17.3-2.9-10.5-1-17.3 6.8-24 6.6-5.7 8.7-6.1 17.6-3.6zm225.8 7.7c2.7 1.3 6 3.4 7.3 4.7 2.3 2.5 7 14.7 7.1 18.2 0 3.2-4.6 12.1-7.1 13.9-4.9 3.4-10.1 6.7-10.3 6.4-.1-.2-1.2-3.4-2.5-7.1l-2.4-6.9 2.2-3.9c1.7-3 2-4.3 1.1-5.9-1.1-2.1-5.1-3.6-7.4-2.7-1 .4-1.6-.5-2.1-3.1-.8-4.1-4.1-11.2-5.3-11.2-.4 0-.9-1.1-1-2.4-.2-2.3.2-2.5 4.6-2.8 6.7-.5 10 .1 15.8 2.8zm-232.3 17c-.4 1-.9 1.2-1.5.6-1.2-1.2-.1-3.5 1.2-2.7.5.3.6 1.3.3 2.1z"/><path d="M87.34 45.59c-5.5 1.3-8.9 3.3-14 8.3-6.2 6-10.7 16.1-10.7 24.1 0 5 2.7 13.9 5.8 19.1 1.6 2.7 3.2 6 3.5 7.4 1.1 4 10.4 11.4 17 13.5 6.7 2.1 18.9 1.5 24.1-1.2 9-4.6 12.2-8.9 16.2-21.8 4.8-15.4 2.1-30.6-7-39.4-6-5.8-20.3-11.3-28.5-11-1.4.1-4.3.5-6.4 1zm22.4 7.2c7.9 3.7 12.3 9 15 17.9 4.7 15 2.4 26-7.2 35-6.4 6-12.9 8.3-21.3 7.5-5.05-.2-8.87-2.78-12.88-5.19-2.85-2.15-2.28-1.77-4.82-4.41-3.3-3.5-5.3-6.7-6.8-11.3-6-18-2.3-30.3 11.6-38.5 8.5-5 17.4-5.3 26.4-1z"/><path d="M109.94 78.69c-2.9 1.4-4.8 7-3.4 9.6 1.4 2.6 3.7 3.4 7.8 2.6 4.7-.9 6.9-5.4 4.7-9.6-.8-1.6-2.1-2.8-2.8-2.8-.8 0-2-.2-2.8-.4-.7-.3-2.3 0-3.5.6zM162.64 46.29c-7.2 2.7-16.8 13-20.4 21.9-4.1 10.2-4.1 16.8.1 25.4 4.7 9.6 14 19.3 20.6 21.5 15 5.1 36-1.7 41.9-13.6 4.8-9.6 2-35.7-4.8-44.6-4.8-6.4-19.7-12.6-29.8-12.3-1.7 0-5.1.8-7.6 1.7zm22.1 5.8c5.5 2.8 12.1 9.7 14.6 15.2 4.3 9.9 5.1 23.5 1.6 30.9-1.8 3.8-7.3 9.02-9.51 9.73-3.07 2-6.55 2.36-9.69 3.27-2.24.85-8.48.6-10.6.3-9.7-1.6-17.8-8.4-25.2-21.4-1.5-2.6-1.7-10.8-.2-15.8.5-2.1 3.3-7.3 6.2-11.5 4.6-6.9 5.9-8.1 11.6-10.9 5.8-2.8 6.8-3 12.2-2.2 3.3.4 7.3 1.5 9 2.4z"/><path d="M185.64 79.39c-3.8 7.1 2.5 13.9 8.8 9.5 2.6-1.8 3-7.4.6-9.8-2.2-2.3-8.1-2.1-9.4.3z"/><path d="M134.84 124.19c-4.5 1.1-7.3 2.4-9.9 4.9-3.2 3.1-3.5 3.8-3 7.4.3 2.2.1 3.8-.4 3.5-2.9-1.9-15.1 8.5-16.5 14-2 7.9 4 14.3 13.6 14.7l3.8.1.7 8.6c.3 4.7.8 9.7 1.1 10.9.6 3.1 4.8 7.2 7.3 7.2 3.4 0 7.3-1.9 7.8-3.9.4-1.7.6-1.7 2.8.5 3.5 3.5 8.8 3.3 12.7-.6 3-3 3-3.1 2.6-12.9l-.3-9.8 4.4-1.2c2.4-.6 5.6-2 7.1-3.1 5.5-3.9 7.7-13.3 4.4-18.9-1.8-3.1-11.6-8.1-15.8-8.1-2.3 0-2.5-.2-1.6-1.9 1.5-2.8 1.2-7.7-.4-9.1-1.5-1.2-11.2-4.1-13.1-3.9-.5.1-3.8.8-7.3 1.6zm23.1 16.9c7.1 2.2 9.7 5.2 9.7 11.3 0 2.7-.6 5.3-1.2 5.9-2.3 1.8-11.3 2.4-15.9 1.1-7.1-2.1-11.8-1.8-18.7 1.3-8.1 3.6-13 3.6-17.1.2-4.4-3.7-4.2-7.5.6-11.9 4.5-4.1 10.1-5.6 16.8-4.5 6 1 13.6-.4 16.7-3 2.8-2.4 2.8-2.4 9.1-.4zm-4.1 31.7c.2 2.3.2 6.4 0 9-.4 4.2-.9 5.2-3.5 6.8-5.4 3.2-7.5-1-8-16.2l-.3-9.5 5.7 2.8c5.4 2.7 5.7 3.1 6.1 7.1zm-16.2 2.5c0 11.7 0 11.9-2.8 14.6-2.3 2.1-3.1 2.4-3.9 1.4-2.1-2.5-5.3-8.34-4.8-14.44-.34-4.66-.53-5.22.3-7.06.8-1.4 8.2-5.8 10.5-6.2.4 0 .7 5.2.7 11.7z" fill="#4d4d4d"/><path d="M13.38 183.51c-.6-1.05-.76-16.86-.27-26.17.45-8.58 1.02-14.4 1.96-19.9.37-2.15 1.12-9.23 1.67-15.71.54-6.49 1.15-12.81 1.34-14.06.33-2.11.3-2.34-.37-3.32-.4-.58-2.14-2.16-3.87-3.51C6 94.7 3.37 91.55 1.82 86.39.25 81.17-.16 71.84.94 66.5c1.3-6.26 4.15-11.54 8.37-15.46 4.8-4.45 7.05-5.26 15.46-5.56 6.43-.22 9.2.11 11.05 1.34 1.97 1.3 2.37 1.14 4.3-1.69 3.66-5.33 5.8-7.96 9.61-11.8a63.35 63.35 0 0 1 11.51-9.53c1.63-1.08 4.52-3.14 6.4-4.58A75.89 75.89 0 0 1 91.8 7.26c7.38-2.07 24.68-5.33 33.05-6.23 9.8-1.06 28.46-1.05 36.32 0 9.56 1.29 24.47 7.91 37.07 16.47a175.02 175.02 0 0 1 22.89 19.13c2.02 2.07 7.21 8.84 9.87 12.87 2.22 3.36 1.83 3.26 14.4 3.72 5.18.2 10.17.5 11.08.66 4.26.81 13.9 9.43 16.87 15.1 2.2 4.18 3.45 11.84 2.84 17.3-.25 2.21-.6 3.46-1.48 5.23-2.55 5.18-9.18 12.74-13.56 15.47-1.31.82-2.38 1.57-2.38 1.67 0 .1.51 1.85 1.15 3.87 2.2 7.04 2.58 9.72 3.82 26.25.7 9.34.71 10.45.34 21.35-.52 15.28-1.05 20.2-2.15 20.2-.6 0-1.2-.7-1.2-1.4 0-.33-.6-1.2-1.34-1.93l-1.35-1.32.24-14.84c.37-23.38-.86-34.7-5.62-52.01-4.08-14.83-9.34-27.4-17.7-42.3-11.06-19.74-13.1-22.67-20.81-30.11-9.43-9.09-18.07-15.16-29.35-20.61a94.62 94.62 0 0 0-34.9-9.55c-5.42-.43-9.04-.3-18.38.67l-9.7 1c-5.43.56-8.82 1.27-27.72 5.76-8.4 2-21.03 7.65-29.25 13.1-5.88 3.91-16.52 13.86-19.8 18.53-2.08 2.96-2.42 4.34-1.37 5.46.7.74.7.84.22 1.58-.28.43-.95.87-1.5.98-.56.12-1.32.65-1.8 1.28-1.08 1.41-4.12 7.56-7.1 14.38-8.8 20.05-11.48 32.3-13.47 61.74a303.2 303.2 0 0 1-.98 11.98c-.34 2.43-.77 10.71-1.32 25.12-.63 16.6-.6 16.42-2.8 16.42-.82 0-1.23-.2-1.54-.74zM256.1 102.6c4.51-2.62 9.3-6.13 10.36-7.59a38.43 38.43 0 0 0 4.61-9.06l.87-2.6-.55-2.5a60.33 60.33 0 0 0-4.56-12.35c-1.63-3.33-1.92-3.73-3.85-5.16a43.1 43.1 0 0 0-10.12-5.16c-3.13-1.01-7.13-1.37-11.26-1.01-4.55.4-4.84.56-4.84 2.64 0 1.42.15 1.8 1.17 2.87 1.4 1.47 3.42 5.55 4.42 8.95.4 1.35.94 3.08 1.2 3.84l.47 1.38 2.22-.05c3.83-.07 6.6 1.84 6.6 4.53 0 .86-.54 2.24-1.83 4.64l-1.83 3.42 2.21 6.3c2.87 8.2 2.72 7.79 2.98 7.79.12 0 .9-.4 1.73-.88zm-236-5.14a87.13 87.13 0 0 1 1.88-7.46 40.71 40.71 0 0 0 1.32-5.18c0-.43-.52-1.63-1.17-2.67-2.21-3.6-2.78-7.4-1.33-8.97a9.1 9.1 0 0 1 5.05-2.42c2.03-.26 2.9-.83 3.15-2.07.1-.56 1.62-4 3.36-7.66 1.73-3.66 3.22-6.81 3.3-7.02.34-.8-8.29-3.07-11.62-3.07-3.08 0-4.7.62-8.02 3.12C8.31 59.84 5.1 65.9 5.72 73.53c.56 6.97 4.35 16.86 8.3 21.69 2.13 2.6 4.75 5.3 5.13 5.3.22 0 .62-1.3.95-3.07zm4.83-19.9c.5-.92.42-2.18-.15-2.65-1.19-.98-2.56 1.1-1.64 2.5.61.95 1.33 1 1.8.15z" fill="#4d4d4d"/><path d="M95.04 118.92a23.7 23.7 0 0 1-8.65-2.2c-5.78-2.63-12.74-8.48-14.01-11.77-.35-.9-1.91-4.17-3.46-7.26C64.2 88.3 62.27 80.95 63 75.17c.66-5.17 2.88-10.95 6.09-15.87 1.86-2.86 7.76-8.62 10.68-10.42 4.42-2.73 11.48-4.47 16.42-4.04 6.62.56 15.8 3.85 22.04 7.89 6.95 4.5 11.26 11.85 12.8 21.84.54 3.45.19 11.5-.67 15.4-1.49 6.83-4.8 15.22-7.44 18.8-2.42 3.3-7.32 6.91-11.5 8.48-3.71 1.39-11.15 2.15-16.39 1.67zm12-6.6c7.24-2.39 14.49-9.03 17.78-16.28 2.92-6.44 3.06-15.02.4-24.23-2.88-9.95-7.27-15.32-15.75-19.3-5.73-2.68-11.68-3.46-17.36-2.29-6.15 1.28-13.63 5.8-17.56 10.61a29.19 29.19 0 0 0-5.13 10.58c-.75 3.48-.5 10.94.5 14.98 2.16 8.75 4.41 13.09 9.57 18.43 3.01 3.12 9.05 6.82 12.78 7.86 3.78 1.04 11.08.87 14.77-.36z" fill="#4d4d4d"/><path d="M109.14 90.54a6.13 6.13 0 0 1-1.9-1.6c-2.2-2.9-.1-9.04 3.58-10.43 1.21-.46 5.27-.11 6.26.54.82.54 2.28 3.13 2.59 4.6.5 2.34-1.04 5.14-3.52 6.4-1.71.87-5.58 1.14-7.01.5zM187.86 89.44c-1.37-.67-2.9-3-3.16-4.81-.3-2.1.74-5.1 2.1-6.01 2.5-1.69 6.78-1.13 8.48 1.1.76 1 .93 1.58 1.02 3.52.09 1.93-.03 2.58-.66 3.8-1.35 2.61-5.04 3.75-7.78 2.4z" fill="#4d4d4d"/><path d="M169.27 116.4c-5.5-.88-8.92-2.3-12.68-5.3-10.46-8.35-18.12-22.27-17.21-31.27 1.06-10.52 6.93-21.07 15.93-28.62 5.48-4.6 11.35-6.8 17.16-6.4 9.6.66 20.97 5.42 26.3 11.01 4.92 5.16 8.18 17.51 8.2 31.07 0 7.2-.6 10.8-2.41 14.53-3.26 6.65-11.15 11.84-21.66 14.25-2.74.63-11.35 1.09-13.63.73zm15.1-5.71c6.04-1.58 8.25-2.8 12.18-6.72 4.88-4.85 6.2-8.02 6.6-15.77.37-7.23-1.2-15.67-3.96-21.3-3.42-6.98-10.8-13.94-16.83-15.85-5.99-1.9-11.6-2.26-15.06-.96-3.83 1.45-8.06 3.84-10.08 5.71-3.33 3.09-9.84 13.34-11.47 18.07-1.61 4.68-1.5 13.08.2 16.46 3.18 6.28 10.37 14.49 15.38 17.57a30.14 30.14 0 0 0 10.17 3.78c3.65.52 8.54.14 12.88-1zM94.79 118.8c-.4-.15-1.06-.2-1.47-.13-.4.08-.81.03-.9-.1-.12-.21-2.55-.75-3.6-.8-.18 0-.4-.1-.5-.2-.09-.11-1.04-.6-2.1-1.08-4.4-2-11.32-7.48-13.05-10.33a7.4 7.4 0 0 0-1.03-1.41c-.16-.11-.28-.3-.26-.41a1.2 1.2 0 0 0-.02-.38 48.7 48.7 0 0 1-.1-.4c-.17-.71-3.61-7.5-3.85-7.59-.15-.06-.21-.22-.13-.36.09-.13-.41-1.56-1.1-3.17a54.94 54.94 0 0 1-1.69-4.32c-.23-.77-.53-1.4-.68-1.4-.15 0-.2-.2-.1-.43.1-.24 0-.87-.21-1.4-.21-.53-.44-1.55-.51-2.27a9.77 9.77 0 0 0-.32-1.81c-.26-.7-.23-5.3.04-6 .13-.32.15-.87.06-1.23-.1-.36-.04-.65.13-.65.16 0 .3-.28.3-.63 0-.34.36-1.7.8-3 .44-1.32.73-2.51.64-2.66-.1-.16-.04-.28.12-.28.4 0 1.44-2.28 1.21-2.65-.1-.17-.06-.3.1-.3s.62-.6 1.03-1.32c.4-.72.62-1.31.49-1.31-.14 0-.03-.19.24-.41.27-.23 1.13-1.26 1.9-2.3 1.66-2.2 6.6-6.99 8.73-8.45a25.98 25.98 0 0 1 7.65-3.46c1.21-.3 2.43-.63 2.7-.73 1.07-.37 8.11-.62 8.44-.3.11.12.53.21.94.21.4 0 2.1.36 3.79.8 1.68.44 3.18.72 3.32.64.14-.09.26.01.26.22s.22.3.49.2c.27-.1.5-.08.5.05 0 .34 2 1.07 2.34.86.15-.1.28-.04.28.12 0 .4 1.61 1.11 2 .88.16-.1.3-.06.3.1 0 .31 3.29 1.96 3.55 1.77.08-.06.24.04.35.21.11.18 1.32 1.07 2.68 1.98 2.26 1.51 3.96 3.13 6.75 6.4.56.67.96 1.2.88 1.2a7 7 0 0 0 .83 1.73 28.4 28.4 0 0 1 1.54 3.29c.32.85.72 1.56.89 1.56.16 0 .21.13.11.3-.2.34.5 3.3.8 3.31.1 0 .21.68.26 1.52.05.83.17 1.64.26 1.8.3.47.33 11.46.04 11.46-.15 0-.24.48-.2 1.06.03.59-.02 1.3-.14 1.56a8.24 8.24 0 0 0-.33 1.65c-.07.63-.2 1.37-.3 1.64-.61 1.71-2.7 8.43-2.7 8.7 0 .18-.08.4-.18.5-.1.08-.95 1.74-1.9 3.67a23.35 23.35 0 0 1-7.76 9.29c-2.33 1.65-5.48 3.27-7 3.6-.58.13-1.06.33-1.06.45s-.78.26-1.73.3c-.94.05-1.76.2-1.8.35-.05.14-.6.2-1.24.13a4.63 4.63 0 0 0-1.71.09c-.85.32-7.23.38-8.07.07zm10.28-5.9c.45-.08.82-.18.82-.22 0-.03.36-.13.8-.21.43-.08.99-.31 1.23-.5.24-.2.43-.28.43-.16 0 .3 3.83-1.67 5.59-2.87 1.9-1.3 7.12-6.52 8.42-8.43 1.2-1.75 3.17-5.58 2.87-5.58-.11 0-.06-.18.12-.4 1.06-1.35 1.55-4.54 1.55-10.27 0-4.97-.28-8.04-.82-9.05-.16-.3-.2-.64-.1-.75.11-.11.03-.4-.17-.65s-.3-.53-.2-.62c.1-.1 0-.6-.22-1.12-.21-.52-.43-1.19-.5-1.48-.05-.29-.26-.95-.46-1.47-.2-.53-.34-1-.3-1.05.02-.06-.2-.46-.49-.9-.29-.45-.44-.8-.34-.8.2 0-1.12-2.7-1.45-2.96a3.93 3.93 0 0 1-.58-1.02c-.67-1.51-3.62-4.77-5.85-6.44-2.06-1.54-6.36-3.96-7.4-4.17-.27-.05-.91-.27-1.43-.48-.53-.22-1.26-.45-1.65-.52-.38-.07-.69-.16-.69-.2 0-.04-.3-.12-.66-.18-.36-.06-1.1-.2-1.64-.32-3.17-.66-10.52-.28-11.57.59-.23.18-.41.23-.41.1 0-.14-.25-.05-.55.2-.3.25-.56.4-.57.35-.1-.3-6.22 2.53-6.38 2.95-.06.15-.32.27-.58.27-.25 0-.46.11-.46.25 0 .13-.42.43-.94.66-1.1.48-6.29 5.22-6.29 5.73 0 .2-.2.51-.46.71-.56.45-2.99 5.17-3.64 7.1l-.27.66a18 18 0 0 0-.56 2.09c-.45 2.07-.22 12.5.29 13.12.2.24.29.52.19.62-.18.18 1.37 6.04 1.76 6.65.12.19.23.41.25.5.24 1.17 3 6.68 3.73 7.46.38.4.68.88.68 1.06 0 .2.3.53.66.75.36.23.66.58.66.79 0 1.09 9.77 8.62 10.55 8.14.16-.1.28-.01.28.2 0 .2.15.27.33.16.18-.12.33-.04.33.16s.15.28.33.16c.18-.1.33-.06.33.11 0 .31.22.4 2.95 1.22 1.4.42 10.27.46 12.48.06z" fill="#1a1a1a"/><path d="M108.16 89.59a4.96 4.96 0 0 1-1.6-2.96c-.25-1.03-.34-1.88-.21-1.88.12 0 .4-.66.62-1.46.37-1.38 2.77-4.52 3.59-4.68.2-.04 1.3-.1 2.48-.13 2.92-.08 4.36.66 5.47 2.82.47.9.92 1.71 1.01 1.8.26.27.19 2.97-.08 2.97-.14 0-.25.21-.25.48s-.63 1.14-1.4 1.94c-1.61 1.68-3.01 2.17-6.24 2.17-2.05 0-2.3-.08-3.39-1.07zM189.21 89.68c-2.08-.69-2.8-1.3-3.65-3.08-.69-1.44-.99-4.06-.56-4.76.15-.23.18-.5.09-.6-.36-.35 2.18-3.06 2.87-3.06.29 0 .52-.1.52-.24 0-.51 3.61-.15 4.83.48 2.04 1.05 2.73 2.39 2.72 5.31 0 1.83-.15 2.73-.58 3.38-.93 1.41-2.19 2.4-3.21 2.5-.53.07-1.03.23-1.13.38-.09.14-.94 0-1.9-.31z" fill="#1a1a1a"/><path d="M14.02 183.93c-.31-.3-.57-.8-.57-1.1 0-.3-.11-.55-.25-.55-.13 0-.2-5.5-.15-12.23.08-11.26.2-14.72.65-20.6.1-1.18.2-2.75.24-3.5.05-.74.18-1.51.3-1.7.12-.2.22-.85.22-1.44 0-1.54.16-3.05.38-3.4.1-.17.28-1.27.4-2.44.1-1.18.27-2.66.36-3.29.28-2.01.74-6.5 1-9.69.1-1.08.25-2.93.37-4.1.1-1.18.23-2.9.27-3.83.04-.93.16-1.83.26-2 .1-.15.25-1.53.34-3.06.09-1.52.25-3 .35-3.26.27-.68.04-2.33-.44-3.23-.39-.72-2.77-3.06-3.34-3.28-.14-.06-.9-.68-1.67-1.38a7.26 7.26 0 0 0-1.49-1.19c-.15.16-4.83-4.48-6.1-6.06-1.36-1.69-3.02-5.11-3.37-6.96-.12-.67-.32-1.22-.43-1.22-.12 0-.26-.92-.31-2.05-.06-1.13-.2-2.09-.33-2.13-.3-.11-.22-11.58.09-12.32.13-.32.16-.78.07-1.03-.1-.25-.04-.59.14-.76.17-.17.34-.78.38-1.35.04-.58.17-1.04.3-1.05.2 0 .73-1.72.75-2.46 0-.18.1-.4.21-.5.12-.08.69-1.1 1.27-2.27a31.21 31.21 0 0 1 2.3-3.78c1.24-1.67 6.56-6.92 6.58-6.49.01.13.23-.05.5-.4.26-.35.48-.55.48-.45 0 .11.72-.07 1.6-.4.88-.34 2.4-.72 3.37-.84a9.53 9.53 0 0 0 2.09-.43c.18-.11 3.14-.13 6.57-.04 6.1.16 6.28.19 8.1 1.13 1.63.83 2 .91 2.73.58.46-.21.93-.62 1.04-.9.11-.29.47-.84.8-1.24.33-.4 1.74-2.27 3.13-4.16 3.36-4.6 10.8-11.98 15.4-15.3a43.24 43.24 0 0 0 3.72-2.84c.06-.14.3-.25.52-.25.23 0 .82-.37 1.3-.83.5-.45 1.04-.82 1.21-.82.18 0 .41-.22.51-.49.1-.27.4-.5.63-.5.25 0 .6-.25.78-.57.18-.31.34-.45.34-.3.01.15.57-.16 1.25-.7.67-.53 2-1.44 2.95-2.02.95-.58 1.73-1.22 1.73-1.41 0-.2.1-.26.2-.14.26.25 3.4-1.46 3.4-1.85 0-.15.16-.17.34-.06.18.11.32.04.32-.17 0-.2.15-.27.33-.16.18.11.33.04.33-.16s.15-.28.33-.17c.18.11.33.04.33-.16s.15-.28.33-.17c.18.11.32.05.32-.14 0-.2.12-.32.25-.28.38.1 3.37-1.11 3.37-1.37 0-.13.18-.24.4-.24.36-.01 6.37-2.03 7.8-2.62.28-.1.72-.23 1-.26.79-.1 6.68-1.5 7.22-1.71.27-.1.78-.22 1.15-.26 1.53-.14 5.41-.96 5.42-1.13 0-.11.77-.23 1.7-.28.94-.05 1.79-.2 1.89-.33.1-.13.85-.28 1.66-.33.81-.05 1.7-.18 1.97-.28.27-.1 1.21-.25 2.1-.33a7.22 7.22 0 0 0 1.96-.37c.2-.12.7-.18 1.1-.13.4.05.91-.01 1.12-.14.21-.14.84-.28 1.4-.32.56-.04 1.76-.16 2.66-.26 5.38-.6 10.49-.82 19.7-.8 11.23 0 15.04.21 19.34 1.05 1.43.28 2.7.43 2.85.34.14-.08.31.01.38.22.07.2.6.39 1.18.41.58.02 1.05.17 1.05.32 0 .16.22.2.5.1.26-.11.49-.08.49.06 0 .24 3.38 1.5 4.1 1.52.18 0 .4.09.5.18.3.33 2.97 1.42 3.45 1.42.27 0 .48.1.48.23 0 .24 2.6 1.3 3.09 1.27.16-.02.38.11.49.29.31.49 4.2 2.36 4.43 2.13.11-.11.2-.02.2.2s.14.32.3.22c.17-.1.35-.05.41.1.06.17 1.6 1.15 3.4 2.19 7.53 4.33 16.47 10.97 24.91 18.5 6 5.36 8.22 7.9 13.96 15.97 1.67 2.35 3.49 4.53 4.04 4.86 1.2.7 2.47.88 7.66 1.1 15.11.6 15.97.7 18.44 2.11 5.4 3.1 12.84 10.8 14.42 14.92.3.81.65 1.48.76 1.48.11 0 .24.47.28 1.04.04.57.19 1.13.33 1.23.14.1.3.85.36 1.67.07.8.21 1.55.33 1.64.24.18.3 1.1.38 5.9.03 1.72-.02 3.35-.1 3.62a40.2 40.2 0 0 0-.55 2.14c-.2.9-.81 2.41-1.34 3.36-.53.95-.87 1.73-.74 1.73s0 .18-.27.4c-.27.23-1.47 1.67-2.65 3.2-2.63 3.42-6.94 7.63-9.7 9.49-2.15 1.45-2.3 1.72-1.67 3.22a18.2 18.2 0 0 1 .58 1.5c.04.05.12.45.18.9.06.46.3 1.27.52 1.81.22.54.43 1.2.47 1.48.14 1.05.87 4.46 1.06 4.92.1.27.16.83.12 1.23-.04.4.04.92.18 1.14.14.23.21.9.16 1.48-.05.58 0 1.22.12 1.4.12.2.28 1.27.35 2.4.12 1.94.22 3.3.64 8.6l.3 4.11c.32 4.58.08 23.55-.38 30.54l-.25 4.2c-.05.78-.17 1.5-.28 1.62-.12.11-.21.49-.21.83 0 .34-.16.92-.36 1.28-.33.64-.38.64-.98.1-.35-.32-.63-.73-.63-.91 0-.19-.6-1.04-1.32-1.9l-1.32-1.57.01-3.05.07-16.03c.03-7.13-.04-14.52-.15-16.42-.33-5.68-.6-8.97-.77-9.25-.1-.14-.23-1.16-.31-2.27a9.5 9.5 0 0 0-.39-2.38 2 2 0 0 1-.14-1.1c.05-.38-.07-.8-.27-.92-.19-.12-.26-.35-.16-.52.2-.32-.74-5.45-1.1-6.04-.1-.18-.24-.83-.3-1.47a3.75 3.75 0 0 0-.43-1.52c-.17-.2-.23-.46-.12-.56.1-.11.08-.39-.07-.62a2.58 2.58 0 0 1-.31-.93c-.06-.6-.76-3.25-1.03-3.94a7.4 7.4 0 0 1-.33-1.25 9.42 9.42 0 0 0-.5-1.64 9.62 9.62 0 0 1-.48-1.55c-.25-1.37-2.52-7.89-2.81-8.08-.17-.11-.28-.3-.25-.42.12-.51-.41-2.17-.7-2.17-.18 0-.24-.13-.14-.3.16-.26-1.05-3.6-1.44-3.97-.1-.09-.24-.46-.3-.82-.06-.36-.28-.77-.5-.9-.2-.13-.25-.24-.1-.25.14 0 .05-.4-.21-.9s-1.03-2.09-1.71-3.53c-3.78-8.02-5.2-10.86-5.48-11.04-.17-.11-.3-.3-.28-.42a6.95 6.95 0 0 0-1.37-2.54c-.17-.1-.29-.33-.27-.49.07-.5-2.37-4.72-2.72-4.72-.18 0-.23-.1-.11-.22.18-.18-.88-2.27-1.4-2.74-.1-.09-.21-.32-.24-.51-.1-.53-3.1-5.54-3.46-5.77-.17-.1-.3-.33-.28-.49.01-.16-.23-.59-.54-.95-.3-.36-.53-.73-.49-.82.04-.09-.18-.46-.5-.82-.3-.36-.52-.7-.47-.75.15-.16-1.07-2.04-1.33-2.04-.15 0-.26-.17-.26-.37 0-.94-3.5-5.09-8.5-10.04-7.27-7.23-7.37-7.32-7.84-7.32-.22 0-.41-.15-.41-.32 0-.42-6.27-5.26-6.81-5.26-.23 0-.41-.14-.41-.3 0-.35-3.33-2.53-3.7-2.42-.13.05-.24-.06-.24-.24s-.23-.33-.5-.33-.49-.14-.49-.32-.37-.42-.82-.53c-.45-.11-.82-.33-.82-.48 0-.15-.33-.37-.74-.5-.4-.12-.81-.33-.9-.46-.15-.2-10.88-5.66-11.08-5.63-.04 0-.9-.36-1.91-.8-1-.45-2.08-.85-2.39-.9-.3-.05-.74-.2-.96-.34-.54-.34-5-1.86-5.28-1.8-.12.02-.65-.13-1.17-.35-.52-.21-1.03-.31-1.12-.22-.1.1-.33.05-.53-.1-.34-.28-3.1-1-4.8-1.27-.44-.07-1.1-.19-1.47-.27-3.63-.78-3.57-.77-9.36-1.38a131 131 0 0 0-14.94.01l-3.61.34c-.72.07-2.65.23-4.27.35-1.63.12-3.25.31-3.61.42-.36.12-1.25.24-1.97.29-3.06.18-5.94.55-6.44.82-.3.16-.62.2-.73.1-.1-.11-.46-.08-.78.05-.33.14-.96.3-1.41.36-.45.05-1.2.2-1.64.33-.46.12-1.05.26-1.32.31-.27.05-.86.18-1.31.3-.45.11-1.2.26-1.67.33-1.31.2-7 1.55-7.33 1.74-.16.1-.8.22-1.4.28-.61.05-1.29.2-1.5.34-.23.14-.63.28-.9.32-.47.06-.88.14-3.46.66-.54.11-1.35.36-1.8.54-.45.2-.93.38-1.07.41a3.2 3.2 0 0 1-1.01.31c-.33.07-.85.23-1.15.36-.3.13-.84.3-1.2.36a4.8 4.8 0 0 0-1.4.62c-.4.27-.74.41-.74.32 0-.27-2.77.9-3.03 1.28-.14.2-.25.25-.25.12 0-.12-.56 0-1.24.28-2.26.93-9.76 4.77-9.97 5.1-.1.18-.33.33-.49.34-.58.04-1.77.7-1.77.99 0 .16-.12.22-.28.12-.15-.1-.58.11-.95.45-.37.35-.76.54-.86.44-.1-.1-.28.05-.4.34-.11.3-.34.46-.5.36-.16-.1-.39.05-.5.33-.1.28-.32.43-.49.33-.16-.1-.38.04-.49.33-.1.28-.4.51-.66.51s-.56.22-.66.5c-.1.26-.34.48-.53.48-.73 0-4.94 3.76-10.88 9.72-5.23 5.23-5.46 5.48-5.46 5.98 0 .22-.14.4-.31.4-.18 0-.7.67-1.19 1.48-.9 1.55-1.41 3.77-.86 3.77.18 0 .42.4.54.88.17.68.04 1.04-.62 1.65-.46.43-.84.7-.84.58 0-.1-.45.12-1 .5-.89.64-2.02 2.3-1.94 2.84.02.11-.1.3-.27.41-.5.31-2.37 4.2-2.14 4.43.11.11.03.2-.18.2s-.35.11-.32.25c.04.14-.25.86-.64 1.6-.39.75-.62 1.45-.5 1.56.11.11.05.2-.14.2-.32 0-1.52 2.7-1.4 3.16.02.12-.08.31-.24.42-.41.29-2.1 4.3-1.81 4.31.13 0 .08.12-.11.25-.4.27-1.9 3.87-1.9 4.55 0 .25-.11.45-.25.45-.2 0-.63 1.3-.78 2.3 0 .1-.14.35-.28.58-.14.22-.14.4 0 .41.15 0 .1.11-.1.25-.35.24-1.51 3.4-1.6 4.35-.01.27-.12.64-.23.82-.24.39-1 3.08-1.07 3.78-.02.27-.16.69-.3.92-.15.24-.18.52-.08.62.1.1.04.38-.14.6-.19.23-.3.53-.27.69.03.15-.03.5-.14.77a73.5 73.5 0 0 0-1.72 8.87c-.06.45-.26 1.63-.45 2.63-.19.99-.43 2.69-.54 3.77l-.35 3.29-.31 3.12-.3 3.28c-.46 4.71-.73 8.33-1 13.08-.07 1.32-.2 2.65-.3 2.95-.08.3-.26 2.1-.38 4s-.27 3.97-.33 4.6c-.37 4.25-.78 12.47-1.33 26.93-.28 7.13-.41 9.42-.62 10.39l-.34 1.64c-.2 1.02-1.77 1.5-2.53.78zm242.3-81.31c.8-.47 1.45-.99 1.45-1.15 0-.17.13-.26.29-.22.4.12 4.14-2.39 6.4-4.3 1.82-1.55 3.81-3.98 3.26-4-.14 0-.1-.1.1-.24.42-.27 2.87-5 2.6-5-.1 0 .05-.37.34-.8.3-.45.53-.93.54-1.07 0-.15.16-.64.33-1.09.5-1.33-.63-7.21-1.8-9.36-.2-.36-.42-.95-.48-1.3-.05-.36-1.06-2.6-2.24-5-1.65-3.35-2.43-4.57-3.44-5.37-.71-.56-1.3-.91-1.3-.77s-.22-.03-.48-.38c-.27-.36-.49-.53-.5-.38 0 .14-.32-.04-.71-.4-.4-.36-.83-.58-.99-.49-.15.1-.28.04-.28-.12 0-.25-3.04-1.86-3.58-1.9-.1 0-.52-.19-.93-.41-.4-.23-.74-.32-.74-.2s-.2.06-.44-.14-.79-.43-1.23-.51c-.44-.08-.8-.18-.8-.21 0-.07-.42-.16-2.78-.55-3.46-.58-9.99-.18-11.31.68-.75.5-.86.77-.8 2.04.04.8.32 1.72.61 2.03.81.88 2.74 4.3 3.61 6.4.43 1.04.87 1.9.97 1.9.1 0 .2.4.23.9.02.5.22 1.34.43 1.88a23.67 23.67 0 0 1 .82 2.3c.4 1.17.57 1.32 1.56 1.35.6.02 1.84.16 2.74.31.9.15 1.78.29 1.96.3.62.03 2.22 1.66 2.67 2.72.4.95.38 1.27-.22 2.96-.38 1.04-.7 2.07-.72 2.3-.02.22-.13.4-.24.4-.11 0-.63.8-1.15 1.76-.9 1.68-.93 1.82-.52 3.28.23.85.55 1.53.7 1.53.15 0 .2.23.09.5-.1.27-.05.49.12.49.17 0 .3.18.3.41 0 .77 1.53 5 1.89 5.25.2.13.24.24.1.25-.15 0-.16.18-.01.41.14.23.3.67.34 1 .17 1.09 1.05 2.86 1.42 2.86.2 0 1.02-.38 1.82-.85zM19.66 99.6c.2-.5.43-1.42.5-2.05.06-.63.2-1.36.29-1.63.34-.92 1.27-4.41 1.36-5.08.05-.37.24-1.05.43-1.52.2-.47.45-1.36.57-1.97l.39-2c.18-.92-1.68-5.2-2.26-5.2-.17 0-.23-.11-.15-.25.16-.25-.57-3.43-.91-3.97-.36-.6 1.14-2.96 2.35-3.7a5.57 5.57 0 0 0 1.35-1.01c.06-.15.21-.2.34-.12.13.08.82 0 1.53-.17l1.63-.4c.53-.12 1.99-1.21 1.63-1.22-.17 0-.14-.12.08-.26.23-.14.45-.62.5-1.06.05-.44.18-.88.3-.97.4-.32 5.13-10.8 4.95-10.99-.1-.1 0-.18.22-.18s.31-.15.2-.33c-.11-.18-.04-.32.16-.32s.29-.14.19-.3c-.1-.17 0-.38.22-.47.28-.12.15-.38-.4-.83-.45-.36-.89-.64-.98-.63-.1.02-.6-.14-1.1-.35-2.93-1.2-9.91-1.93-12.48-1.3-1.24.3-3.49 1.65-4.77 2.84-.57.53-1.04.89-1.04.78 0-.1-1.33 1.19-2.95 2.87-1.63 1.67-2.96 3.25-2.96 3.5s-.1.45-.25.45c-.2 0-1.76 2.99-1.91 3.7-.03.13-.1.32-.14.4a3.1 3.1 0 0 0-.16.5c-.05.18-.12.37-.17.41-.18.19-.38 1.87-.5 4.35-.13 2.7.36 6.95.87 7.59.16.2.21.43.12.53-.1.09 0 .6.2 1.11.22.53.43 1.25.48 1.61.06.36.33 1.21.62 1.89.29.67.5 1.3.5 1.4-.02.11.2.55.49 1 .29.44.45.8.35.8-.27 0 2.17 4.75 2.5 4.87.16.06.29.32.29.58 0 .25.15.46.34.46.2 0 .26.15.15.33-.11.18.02.42.3.53.29.1.52.38.52.6 0 .46 5.16 6.1 5.57 6.1.15 0 .43-.42.64-.92zm5.2-21.83c.54-.66.3-2.6-.35-3-.48-.3-.71-.22-1.23.41-.8.98-.8 1.4.03 2.28.77.83 1.09.9 1.56.31z" fill="#1a1a1a"/><path d="M130.13 194.94c-1.44-.63-3.93-2.98-4.86-4.6-.94-1.61-1.32-4.11-1.98-12.98-.27-3.7-.57-7.22-.67-7.8l-.17-1.07h-2.7c-6.55-.02-11.73-2.68-13.93-7.17-.73-1.5-.9-2.3-.9-4.32-.01-2.13.13-2.77 1.03-4.6 2.54-5.16 11.7-12.75 14.98-12.42l1.05.1.02-3.28c.03-4.55-.06-4.26 2.04-6.46 2.39-2.52 4.1-3.7 6.89-4.75 2.69-1.02 10.16-2.75 11.87-2.75 1.45 0 7.28 1.6 10.33 2.81 1.7.69 2.24 1.08 2.65 1.95.67 1.42.66 5.47-.02 7.23-.94 2.44-.86 2.6 1.36 2.83 2.59.26 4.3.75 7.17 2.06 3.27 1.5 6.51 3.6 7.9 5.12 3.68 4.08 2.57 13.43-2.15 18.16-1.96 1.95-5.12 3.5-9.68 4.72l-3.47.94.21 3.94c.12 2.16.24 6.45.26 9.52.06 6.52.03 6.64-3.02 9.46-2.35 2.17-4.68 3.05-7.27 2.75-1.97-.24-3.13-.83-5.23-2.7a9.71 9.71 0 0 0-1.92-1.47c-.15 0-.5.58-.77 1.29-.63 1.58-2.34 2.77-5 3.46-2.36.61-2.67.61-4.02.03zm4.56-4.77c2.6-2.32 2.86-3.16 3.09-10.12.18-5.6-.24-15.98-.67-16.4-.6-.61-7.23 2.9-9.77 5.15l-1.42 1.27.09 5.37c.11 7.1 1.05 10.57 4.01 14.88 1.4 2.03 2.26 2 4.67-.15zm14.88-1.12c3.7-1.76 4.2-2.9 4.37-10.17.17-7.2-.03-8.79-1.31-10.24-1-1.13-10.2-6.09-10.6-5.7-.33.33.46 16.09.98 19.31.75 4.76 2.4 7.57 4.42 7.58a8.7 8.7 0 0 0 2.14-.78zm-23.73-26.12a59.76 59.76 0 0 0 6.18-2.15c2.04-.84 4.6-1.73 5.7-1.99 3.21-.76 7.38-.61 11.36.4 5.48 1.38 13.68 1.18 16.79-.41 1.08-.56 1.57-1.92 1.81-5.07.38-4.78-1.03-8.2-4.22-10.31-2.09-1.38-9.07-3.8-11-3.8-1.07 0-1.7.25-2.93 1.19a18.07 18.07 0 0 1-7.4 3.28c-1.96.42-3.4.47-7.67.26-9.2-.45-11.23-.2-15.3 1.85-2.1 1.06-5.5 4.04-6.56 5.77-2.04 3.3-1.04 6.93 2.61 9.45 3.11 2.16 6.35 2.62 10.63 1.53z" fill="#1a1a1a"/></svg>